<svg xmlns="http://www.w3.org/2000/svg" version="1.1" xmlns:xlink="http://www.w3.org/1999/xlink" xmlns:svgjs="http://svgjs.dev/svgjs" width="1000" height="623" viewBox="0 0 1000 623"><g transform="matrix(1,0,0,1,-0.6060606060606233,0.2522267206477409)"><svg viewBox="0 0 396 247" data-background-color="#6936f5" preserveAspectRatio="xMidYMid meet" height="623" width="1000" xmlns="http://www.w3.org/2000/svg" xmlns:xlink="http://www.w3.org/1999/xlink"><g id="tight-bounds" transform="matrix(1,0,0,1,0.2400000000000091,-0.09999999999999432)"><svg viewBox="0 0 395.52 247.2" height="247.2" width="395.52"><g><svg></svg></g><g><svg viewBox="0 0 395.52 247.2" height="247.2" width="395.52"><g transform="matrix(1,0,0,1,39.55199999999999,92.45592975290994)"><svg viewBox="0 0 316.416 62.28814049418011" height="62.28814049418011" width="316.416"><g><svg viewBox="0 0 316.416 62.28814049418011" height="62.28814049418011" width="316.416"><g><svg viewBox="0 0 316.416 62.28814049418011" height="62.28814049418011" width="316.416"><g id="textblocktransform"><svg viewBox="0 0 316.416 62.28814049418011" height="62.28814049418011" width="316.416" id="textblock"><g><svg viewBox="0 0 316.416 62.28814049418011" height="62.28814049418011" width="316.416"><g transform="matrix(1,0,0,1,0,0)"><svg width="316.416" viewBox="-0.05000000447034836 -37.150001525878906 244.8300018310547 48.20000076293945" height="62.28814049418011" data-palette-color="#ffffff"><path d="M-0.05 0L12.8-33.85 20.15-33.85 32.55 0 24.2 0 21.7-8.15 10.75-8.15 8.15 0-0.05 0ZM12.65-14.25L19.85-14.25Q19.35-15.7 18.82-17.28 18.3-18.85 17.82-20.35 17.35-21.85 16.95-23.18 16.55-24.5 16.25-25.4L16.25-25.4Q15.95-24.45 15.55-23.13 15.15-21.8 14.68-20.3 14.2-18.8 13.68-17.25 13.15-15.7 12.65-14.25L12.65-14.25ZM48.8-12.6L48.8-25.1 56.7-25.1 56.7-12.05Q56.7-9.05 57.1-7.05 57.5-5.05 58.05-3.85L58.05-3.85Q58.65-2.4 59.45-1.6L59.45-1.6 53.1 0.4Q52.65-0.05 52.2-0.75L52.2-0.75Q51.8-1.3 51.4-2.18 51-3.05 50.75-4.2L50.75-4.2Q49.45-1.85 47.17-0.78 44.9 0.3 42.25 0.3L42.25 0.3Q40.3 0.3 38.92-0.33 37.55-0.95 36.67-2.08 35.8-3.2 35.42-4.8 35.05-6.4 35.05-8.4L35.05-8.4 35.05-25.1 43-25.1 43-9.45Q43-7.7 43.42-6.63 43.85-5.55 45-5.55L45-5.55Q46.4-5.55 47.6-7.43 48.8-9.3 48.8-12.6L48.8-12.6ZM86.9-1.6L80.55 0.4 80.25 0.05Q79.95-0.25 79.55-0.9 79.15-1.55 78.75-2.48 78.35-3.4 78.15-4.6L78.15-4.6Q77.3-2.25 75.65-0.98 74 0.3 71.3 0.3L71.3 0.3Q68.85 0.3 67.02-0.6 65.2-1.5 64-3.13 62.8-4.75 62.22-7.05 61.65-9.35 61.65-12.15L61.65-12.15Q61.65-15 62.57-17.45 63.5-19.9 65.15-21.68 66.8-23.45 69.1-24.45 71.4-25.45 74.2-25.45L74.2-25.45Q74.65-25.45 75.17-25.4 75.7-25.35 76.25-25.3L76.25-25.3 76.25-36.2 84.15-34.9 84.15-12.05Q84.15-9.1 84.57-7.1 85-5.1 85.5-3.88 86-2.65 86.45-2.15L86.45-2.15 86.9-1.6ZM72.6-5.5Q73.35-5.5 74.02-6.15 74.7-6.8 75.2-7.9 75.7-9 75.97-10.43 76.25-11.85 76.25-13.45L76.25-13.45 76.25-19.25Q75.9-19.4 75.27-19.53 74.65-19.65 74.2-19.65L74.2-19.65Q73-19.65 72.2-19.13 71.4-18.6 70.92-17.68 70.45-16.75 70.25-15.45 70.05-14.15 70.05-12.65L70.05-12.65Q70.05-11.25 70.1-9.98 70.15-8.7 70.42-7.7 70.7-6.7 71.2-6.1 71.7-5.5 72.6-5.5L72.6-5.5ZM96.44 0.2Q93.59 0.2 91.84-1.28 90.09-2.75 90.09-5.45L90.09-5.45 90.09-25.1 97.99-25.1 97.99-7.7Q97.99-6.55 98.34-6.15 98.69-5.75 99.39-5.75L99.39-5.75Q99.79-5.75 100.19-5.83 100.59-5.9 100.69-5.95L100.69-5.95 101.39-1Q101.34-0.95 100.94-0.78 100.54-0.6 99.89-0.38 99.24-0.15 98.34 0.03 97.44 0.2 96.44 0.2L96.44 0.2ZM94.14-37.15Q96.24-37.15 97.34-35.9 98.44-34.65 98.44-32.75L98.44-32.75Q98.44-30.8 97.32-29.5 96.19-28.2 93.94-28.2L93.94-28.2Q91.84-28.2 90.72-29.48 89.59-30.75 89.59-32.5L89.59-32.5Q89.59-34.5 90.74-35.83 91.89-37.15 94.14-37.15L94.14-37.15ZM114.94-25.6Q120.89-25.6 123.62-22.2 126.34-18.8 126.34-12.8L126.34-12.8Q126.34-9.95 125.62-7.53 124.89-5.1 123.42-3.33 121.94-1.55 119.72-0.53 117.49 0.5 114.54 0.5L114.54 0.5Q111.54 0.5 109.37-0.38 107.19-1.25 105.82-2.9 104.44-4.55 103.77-6.93 103.09-9.3 103.09-12.25L103.09-12.25Q103.09-15.1 103.82-17.55 104.54-20 106.02-21.78 107.49-23.55 109.72-24.58 111.94-25.6 114.94-25.6L114.94-25.6ZM114.49-19.65Q113.59-19.65 112.99-19.13 112.39-18.6 112.07-17.68 111.74-16.75 111.62-15.5 111.49-14.25 111.49-12.8L111.49-12.8Q111.49-11.3 111.64-9.95 111.79-8.6 112.17-7.6 112.54-6.6 113.24-6.03 113.94-5.45 114.99-5.45L114.99-5.45Q115.89-5.45 116.49-6 117.09-6.55 117.42-7.48 117.74-8.4 117.87-9.65 117.99-10.9 117.99-12.3L117.99-12.3Q117.99-13.85 117.84-15.18 117.69-16.5 117.32-17.5 116.94-18.5 116.24-19.07 115.54-19.65 114.49-19.65L114.49-19.65ZM138.34-25.55L138.34-25.55Q140.24-25.55 141.86-25.23 143.49-24.9 144.74-24.5L144.74-24.5Q146.19-24 147.39-23.45L147.39-23.45 144.89-17.85Q144.49-18.05 143.86-18.35 143.24-18.65 142.51-18.95 141.79-19.25 140.99-19.45 140.19-19.65 139.44-19.65L139.44-19.65Q138.64-19.65 138.09-19.3 137.54-18.95 137.54-18.2L137.54-18.2Q137.54-17.4 138.56-16.63 139.59-15.85 141.29-15.15L141.29-15.15Q144.29-13.9 145.91-12.18 147.54-10.45 147.54-7.55L147.54-7.55Q147.54-5.95 146.96-4.48 146.39-3 145.26-1.9 144.14-0.8 142.44-0.15 140.74 0.5 138.54 0.5L138.54 0.5Q136.79 0.5 135.26 0.25 133.74 0 132.46-0.38 131.19-0.75 130.19-1.13 129.19-1.5 128.59-1.8L128.59-1.8 131.19-7.55Q131.44-7.45 132.06-7.1 132.69-6.75 133.51-6.4 134.34-6.05 135.26-5.78 136.19-5.5 137.04-5.5L137.04-5.5Q138.09-5.5 138.76-5.9 139.44-6.3 139.44-7.1L139.44-7.1Q139.44-8.05 138.61-8.8 137.79-9.55 136.49-10.05L136.49-10.05Q132.74-11.55 131.11-13.43 129.49-15.3 129.49-18.1L129.49-18.1Q129.49-19.7 130.09-21.05 130.69-22.4 131.84-23.4 132.99-24.4 134.61-24.98 136.24-25.55 138.34-25.55ZM160.39 9.7L152.49 11.05 152.49-13Q152.49-16 152.06-17.98 151.64-19.95 151.09-21.2L151.09-21.2Q150.49-22.6 149.74-23.45L149.74-23.45 156.09-25.45Q156.69-24.85 157.19-24L157.19-24Q157.59-23.3 157.99-22.23 158.39-21.15 158.59-19.75L158.59-19.75Q159.54-22.6 161.21-24.03 162.89-25.45 165.59-25.45L165.59-25.45Q167.94-25.45 169.71-24.55 171.49-23.65 172.66-22.03 173.84-20.4 174.41-18.1 174.99-15.8 174.99-12.95L174.99-12.95Q174.99-10.15 174.09-7.73 173.19-5.3 171.56-3.53 169.94-1.75 167.74-0.73 165.54 0.3 162.99 0.3L162.99 0.3Q161.59 0.3 160.39 0L160.39 0 160.39 9.7ZM164.04-19.65Q163.29-19.65 162.61-19.03 161.94-18.4 161.44-17.38 160.94-16.35 160.66-14.98 160.39-13.6 160.39-12.1L160.39-12.1 160.39-5.85Q160.74-5.75 161.34-5.63 161.94-5.5 162.44-5.5L162.44-5.5Q163.64-5.5 164.44-6.03 165.24-6.55 165.71-7.48 166.19-8.4 166.39-9.68 166.59-10.95 166.59-12.45L166.59-12.45Q166.59-13.85 166.54-15.15 166.49-16.45 166.21-17.45 165.94-18.45 165.44-19.05 164.94-19.65 164.04-19.65L164.04-19.65ZM185.53 0.2Q183.78 0.2 182.56-0.3 181.33-0.8 180.51-1.68 179.68-2.55 179.31-3.7 178.93-4.85 178.93-6.2L178.93-6.2 178.93-34.9 186.83-36.25 186.83-7.9Q186.83-6.7 187.26-6.23 187.68-5.75 188.83-5.75L188.83-5.75Q189.38-5.75 190.06-5.85 190.73-5.95 191.28-6.05L191.28-6.05 192.03-1.1Q191.28-0.75 189.51-0.28 187.73 0.2 185.53 0.2L185.53 0.2ZM215.48-24L215.48-12.05Q215.48-9.05 215.88-7.05 216.28-5.05 216.83-3.85L216.83-3.85Q217.43-2.4 218.23-1.6L218.23-1.6 211.88 0.4Q211.33-0.1 210.88-0.85L210.88-0.85Q210.48-1.5 210.11-2.43 209.73-3.35 209.48-4.6L209.48-4.6Q208.63-2.25 206.98-0.98 205.33 0.3 202.63 0.3L202.63 0.3Q200.18 0.3 198.36-0.6 196.53-1.5 195.33-3.13 194.13-4.75 193.56-7.05 192.98-9.35 192.98-12.15L192.98-12.15Q192.98-15 193.91-17.45 194.83-19.9 196.48-21.68 198.13-23.45 200.43-24.45 202.73-25.45 205.53-25.45L205.53-25.45Q207.08-25.45 208.83-25.23 210.58-25 212.03-24.73 213.48-24.45 214.46-24.23 215.43-24 215.48-24L215.48-24ZM203.93-5.5Q204.68-5.5 205.36-6.15 206.03-6.8 206.53-7.9 207.03-9 207.31-10.43 207.58-11.85 207.58-13.45L207.58-13.45 207.58-19.25Q207.23-19.4 206.61-19.53 205.98-19.65 205.53-19.65L205.53-19.65Q204.33-19.65 203.53-19.13 202.73-18.6 202.26-17.68 201.78-16.75 201.58-15.45 201.38-14.15 201.38-12.65L201.38-12.65Q201.38-11.25 201.43-9.98 201.48-8.7 201.76-7.7 202.03-6.7 202.53-6.1 203.03-5.5 203.93-5.5L203.93-5.5ZM243.13-25.1L242.93-11.55Q242.93-9.95 243.2-8.58 243.48-7.2 243.83-5.88 244.18-4.55 244.48-3.15 244.78-1.75 244.78-0.15L244.78-0.15Q244.78 5.1 241.83 7.93 238.88 10.75 233.78 10.75L233.78 10.75Q231.48 10.75 228.98 10.2 226.48 9.65 224.08 8.65L224.08 8.65 225.93 2.55Q228.13 3.3 229.78 3.73 231.43 4.15 233.28 4.15L233.28 4.15Q235.28 4.15 236.5 3 237.73 1.85 237.73-0.3L237.73-0.3Q237.73-1.3 237.58-2.13 237.43-2.95 237.03-3.95L237.03-3.95Q235.73-1.7 233.48-0.7 231.23 0.3 228.63 0.3L228.63 0.3Q226.68 0.3 225.3-0.33 223.93-0.95 223.05-2.08 222.18-3.2 221.8-4.8 221.43-6.4 221.43-8.4L221.43-8.4 221.43-25.1 229.38-25.1 229.38-9.45Q229.38-7.7 229.8-6.63 230.23-5.55 231.38-5.55L231.38-5.55Q232.03-5.55 232.7-6.03 233.38-6.5 233.93-7.38 234.48-8.25 234.83-9.5 235.18-10.75 235.18-12.3L235.18-12.3 235.18-25.1 243.13-25.1Z" opacity="1" transform="matrix(1,0,0,1,0,0)" fill="#ffffff" class="undefined-text-0" data-fill-palette-color="primary" id="text-0"></path></svg></g></svg></g></svg></g></svg></g></svg></g></svg></g><g mask="url(#37fe6828-58ff-4876-9b4d-80aec08e2d2d)"><g transform="matrix(3.381972873800772, 0, 0, 3.381972873800772, 67.20233177136879, 1)"><svg xmlns="http://www.w3.org/2000/svg" xmlns:xlink="http://www.w3.org/1999/xlink" version="1.1" x="0" y="0" viewBox="11.395999908447266 13.749000549316406 77.20799255371094 72.50205993652344" enable-background="new 0 0 100 100" xml:space="preserve" height="72.50205993652344" width="77.20799255371094" class="icon-none" data-fill-palette-color="accent" id="none"><g fill="#ffffff" data-fill-palette-color="accent"><path fill="#ffffff" d="M35.128 61.429c-1.282-3.354-5.041-5.033-8.396-3.75L23.19 59.03c-0.47 0.18-0.903 0.411-1.303 0.68l8.586 26.507c0.975 0.098 1.983-0.011 2.962-0.385l3.542-1.354c3.353-1.279 5.032-5.039 3.752-8.394L35.128 61.429z" data-fill-palette-color="accent"></path><path fill="#ffffff" d="M88.604 52.354c0-21.286-17.317-38.605-38.603-38.605H50h-0.001c-21.285 0-38.603 17.319-38.603 38.605 0 5.227 1.024 10.278 2.978 14.938-1.093 1.117-1.505 2.806-0.909 4.362l3.798 9.932c0.694 1.816 2.528 2.854 4.372 2.621 1.37 0.92 3.152 1.188 4.811 0.552l0.332-0.127-7.186-22.18c-0.037 0.081-0.079 0.161-0.112 0.243l-1.28 0.49c-0.335 0.127-0.649 0.287-0.94 0.471-1.232-3.582-1.881-7.385-1.881-11.302 0-19.091 15.53-34.624 34.621-34.624H50h0.001c19.091 0 34.621 15.532 34.621 34.624 0 3.917-0.648 7.72-1.881 11.302-0.291-0.184-0.605-0.344-0.94-0.471l-1.28-0.49c-0.033-0.082-0.075-0.162-0.112-0.243l-7.186 22.18 0.332 0.127c1.658 0.636 3.44 0.368 4.811-0.552 1.844 0.233 3.678-0.805 4.372-2.621l3.798-9.932c0.596-1.557 0.184-3.245-0.909-4.362C87.579 62.633 88.604 57.581 88.604 52.354z" data-fill-palette-color="accent"></path><path fill="#ffffff" d="M76.81 59.03l-3.541-1.352c-3.355-1.283-7.114 0.396-8.396 3.75l-5.602 14.656c-1.28 3.354 0.399 7.114 3.752 8.394l3.542 1.354c0.979 0.374 1.987 0.482 2.962 0.385l8.586-26.507C77.713 59.441 77.279 59.21 76.81 59.03z" data-fill-palette-color="accent"></path></g></svg></g></g></svg></g><defs><mask id="37fe6828-58ff-4876-9b4d-80aec08e2d2d"><rect width="640" height="400" fill="white"></rect><rect width="348.05760000000004" height="91.69761060478824" fill="black" x="145.97119999999998" y="154.1511946976059" id="transform-me" transform="matrix(1,0,0,1,-122.24000000000001,-76.4)"></rect></mask></defs></svg><rect width="395.52" height="247.2" fill="none" stroke="none" visibility="hidden"></rect></g></svg></g></svg>